<?xml version="1.0" encoding="UTF-8"?>
<svg id="_图层_1" data-name="图层 1" xmlns="http://www.w3.org/2000/svg" version="1.1" viewBox="0 0 2048 2048">
  <defs>
    <style>
      .cls-1 {
        fill: #ce9bfd;
        stroke-width: 0px;
      }
    </style>
  </defs>
  <path class="cls-1" d="M1024.5,19C469.73,19,20,468.73,20,1023.5s449.73,1004.5,1004.5,1004.5,1004.5-449.73,1004.5-1004.5S1579.27,19,1024.5,19ZM1539.28,1694.36c-24.28,14.64-54.27-28.4-54.27-28.4l-435.5-642.88-435.5,642.88s-32,43.04-54.27,28.4c-22.27-14.64,6.58-60.71,6.58-60.71l448.41-661.93-451.33-666.24s-25.93-41.73-3.66-57.1c22.27-15.38,51.34,24.8,51.34,24.8l438.43,647.2,438.43-647.2s29.07-38.18,51.34-24.8c22.28,13.38-3.66,57.1-3.66,57.1l-451.33,666.24,448.41,661.93s30.86,46.07,6.58,60.71Z"/>
</svg>